<?xml version="1.0" standalone="no"?>
<svg xmlns="http://www.w3.org/2000/svg" xmlns:xlink="http://www.w3.org/1999/xlink" style="isolation:isolate" viewBox="-15 5 270.863 270.254" width="236.863" height="284.254">
	<g>
		<g>
			<g opacity="0.84">
				<path d=" M 2.049 45.064 C 2.049 45.064 83.72 98.097 113.948 189.314 C 144.177 280.531 68.701 270.306 75.765 278.409 C 87.924 292.358 195.234 285.687 167.512 276.818 C 125.274 263.306 92.735 127.265 207.287 50.367 C 325.164 -28.764 68.337 6.633 2.049 45.064 Z " fill="none" vector-effect="non-scaling-stroke" stroke-width="0.75" stroke="rgb(0,0,0)" stroke-linejoin="miter" stroke-linecap="butt" stroke-miterlimit="4" />
			</g>
			<g opacity="0.26300001">
				<path d=" M 57.4 60.741 C 49.864 52.829 5.72 41.556 14.537 49.336 C 99.468 124.284 94.203 159.817 111.824 170.581 C 111.824 170.581 123.937 130.593 57.4 60.741 Z " fill="rgb(13,10,29)" fill-opacity="0.22380952" />
			</g>
			<path d=" M 86.918 277.32 C 66.441 275.852 177.82 287.781 163.418 276.524 L 151.883 267.508 C 151.883 267.508 172.036 283.418 86.918 277.32 Z " fill="rgb(0,0,0)" fill-opacity="0.34761909" />
		</g>
		<g>
			<linearGradient id="liquid-gradient" x1="0.3517336244634718" y1="0.051594317811940016" x2="0.5055534860194112" y2="0.7852111829483059" gradientTransform="matrix(164.444,0,0,134.778,40.491,32.095)" gradientUnits="userSpaceOnUse">
				<stop offset="0%" stop-opacity="0.91960785" style="stop-color:pink" />
				<stop offset="100%" stop-opacity="0.75238096" style="stop-color:orange" />
			</linearGradient>
			<path d=" M 40.491 72.733 C 79.104 115.831 78.59 114.804 99.358 148.04 C 113.378 177.43 127.124 170.203 131.498 141.676 C 140.616 119.94 154.77 83.957 198.787 52.137 C 239.782 22.502 63.18 22.858 40.491 72.733 Z " fill="url(#liquid-gradient)" />
		</g>
		<g>
			<path d=" M 0.549 43.564 C 0.549 43.564 82.22 96.597 112.448 187.814 C 142.677 279.03 67.201 268.806 74.265 276.909 C 86.424 290.858 193.734 284.187 166.012 275.318 C 123.774 261.806 91.235 125.765 205.787 48.867 C 323.664 -30.264 66.837 5.133 0.549 43.564 Z " fill="rgb(255,255,255)" fill-opacity="0.22380952" vector-effect="non-scaling-stroke" stroke-width="0.751" stroke="rgb(255,255,255)" stroke-opacity="0.57619048" stroke-linejoin="miter" stroke-linecap="butt" stroke-miterlimit="4" />
			<g opacity="0.17000002">
				<path d=" M 146.557 23.943 C 152.305 13.172 197.578 -3.028 190.575 6.972 C 116.09 113.341 124.555 120.563 121.632 165.541 C 121.632 165.541 95.809 119.043 146.557 23.943 L 146.557 23.943 Z " fill="rgb(255,254,255)" />
			</g>
			<path d=" M 82.918 275.32 C 62.441 273.852 173.82 285.781 159.418 274.524 L 147.883 265.508 C 147.883 265.508 168.036 281.418 82.918 275.32 Z " fill="rgb(255,255,255)" fill-opacity="0.34761909" />
			<path d=" M 193.896 2.428 C 183.502 1.518 240.76 0.793 231.581 14.844 L 224.23 26.098 C 224.23 26.098 237.102 6.209 193.896 2.428 Z " fill="rgb(255,255,255)" fill-opacity="0.34761909" />
			<path d=" M 92.701 30.826 C 110.657 30.353 13.588 30.368 27.839 52.809 L 40.491 72.733 C 39.731 71.363 15.749 32.856 92.701 30.826 Z " fill="rgb(255,255,255)" fill-opacity="0.34761909" />
			<g opacity="0.28800001">
				<path d=" M 133.861 25.801 C 138.13 15.171 171.751 -0.817 166.55 9.053 C 111.234 114.026 117.521 121.153 115.35 165.541 C 115.35 165.541 96.173 119.653 133.861 25.801 Z " fill="rgb(255,254,255)" />
			</g>
		</g>
	</g>
</svg>
